<svg width="461" height="468" viewBox="0 0 461 468" fill="none" xmlns="http://www.w3.org/2000/svg">
<path d="M244.215 26.1924C259.285 26.9587 271.606 34.5799 283.34 43.4424C284.212 44.0973 284.212 44.0973 285.102 44.7654C286.513 45.8579 287.87 47.0199 289.215 48.1924C289.215 48.8524 289.215 49.5124 289.215 50.1924C289.804 50.4566 290.393 50.7209 291 50.9932C293.296 52.2361 294.824 53.5424 296.668 55.3799C297.287 55.9961 297.906 56.6122 298.543 57.2471C299.178 57.889 299.812 58.531 300.465 59.1924C301.44 60.1553 301.44 60.1553 302.434 61.1377C303.048 61.7539 303.661 62.37 304.293 63.0049C304.855 63.5682 305.416 64.1315 305.994 64.7119C307.215 66.1924 307.215 66.1924 307.215 68.1924C308.535 68.8524 309.855 69.5124 311.215 70.1924C311.215 70.8524 311.215 71.5124 311.215 72.1924C311.783 72.445 312.35 72.6977 312.934 72.958C315.513 74.3535 317.493 76.0309 319.715 77.9424C331.599 87.5541 343.23 91.1348 358.352 89.7822C368.615 88.2153 377.105 84.1213 385.51 78.2275C388.731 75.9883 391.292 74.6307 395.215 74.1924C393.635 79.4363 390.293 83.1307 386.84 87.2549C386.215 88.0064 385.589 88.7579 384.945 89.5322C376.243 99.8614 366.843 108.833 356.215 117.192C355.313 117.927 354.411 118.662 353.481 119.419C349.501 122.657 345.632 125.578 341.215 128.192C339.996 128.992 338.782 129.799 337.571 130.61C328.088 136.931 318.493 142.289 308.215 147.192C306.484 148.085 304.755 148.98 303.028 149.88C298.454 152.167 293.744 153.956 288.958 155.747C284.554 157.419 280.234 159.281 275.903 161.13C270.052 163.621 264.186 166.004 258.215 168.192C244.617 173.189 231.277 178.93 218.215 185.192C217.607 185.48 216.998 185.769 216.371 186.065C197.5 195.032 180.462 206.089 165.239 220.478C163.215 222.192 163.215 222.192 160.215 223.192C159.751 224.182 159.751 224.182 159.278 225.192C158.215 227.192 158.215 227.192 156.09 227.942C155.472 228.025 154.853 228.107 154.215 228.192C154.785 223.922 157.358 220.874 159.84 217.505C160.289 216.889 160.738 216.272 161.2 215.637C162.53 213.816 163.871 212.003 165.215 210.192C165.924 209.229 166.633 208.267 167.364 207.274C170.809 202.703 170.809 202.703 172.215 201.192C172.875 201.192 173.535 201.192 174.215 201.192C174.442 200.636 174.669 200.079 174.903 199.505C176.589 196.534 178.746 194.547 181.215 192.192C182.04 191.367 182.865 190.542 183.715 189.692C184.54 188.867 185.365 188.042 186.215 187.192C186.959 186.433 187.703 185.674 188.469 184.892C196.363 177.133 204.936 170.182 214.011 163.86C219.315 160.164 224.397 156.224 229.473 152.224C231.704 150.571 233.749 149.406 236.215 148.192C236.9 146.868 237.564 145.533 238.215 144.192C239.882 142.526 241.549 140.859 243.215 139.192C256.635 123.568 263.249 105.636 263.215 85.1924C263.227 84.0812 263.239 82.97 263.25 81.8252C262.79 67.3385 256.778 51.9521 249.653 39.4424C249.235 38.7012 248.818 37.96 248.387 37.1963C247.434 35.5659 246.426 33.9675 245.403 32.3799C244.215 30.1924 244.215 30.1924 244.215 26.1924Z" fill="#F98D1B"/>
<path d="M149.215 63.1925C150.961 63.7591 150.961 63.7591 152.743 64.337C162.975 68.0796 172.184 73.5679 181.602 78.9933C198.952 88.9573 217.851 99.5818 238.438 94.6613C243.066 93.1631 246.207 90.783 249.672 87.3995C251.215 86.1925 251.215 86.1925 254.215 86.1925C254.96 105.346 248.627 120.212 235.891 134.302C235.008 135.256 234.125 136.21 233.215 137.193C232.57 137.92 231.924 138.647 231.258 139.396C225.099 145.997 217.542 150.987 210.215 156.193C203.575 160.94 197.13 165.812 190.852 171.032C188.414 173.03 185.926 174.929 183.403 176.818C179.989 179.447 177.249 182.235 174.54 185.575C172.137 188.509 169.371 191.091 166.629 193.704C141.649 217.95 126.706 251.419 120.215 285.193C119.225 285.193 118.235 285.193 117.215 285.193C108.808 268.379 115.992 238.911 121.555 222.086C123.113 217.617 125.087 213.413 127.215 209.193C127.779 208.053 128.342 206.913 128.922 205.739C131.909 199.717 134.946 193.72 138 187.732C150.75 162.648 157.908 141.469 150.219 113.579C143.91 94.3014 130.575 75.6756 113.614 64.4464C113.152 64.0326 112.691 63.6188 112.215 63.1925C112.215 62.2025 112.215 61.2125 112.215 60.1925C124.033 56.446 137.794 59.4789 149.215 63.1925Z" fill="#0F2E4E"/>
<path d="M214.278 11.9426C215.609 12.6591 216.924 13.4064 218.215 14.1926C219.247 14.7701 220.278 15.3476 221.34 15.9426C229.881 22.6264 233.877 29.9993 235.629 40.7277C236.134 48.8921 233.013 57.3067 228.278 63.884C220.793 72.2622 212.228 75.5663 201.18 76.2629C196.765 76.1582 193.208 74.9983 189.215 73.1926C188.143 72.7182 187.07 72.2438 185.965 71.7551C177.669 67.0415 172.364 59.7315 169.684 50.5754C167.85 41.251 169.383 33.1024 174.09 24.9426C183.6 12.6363 199.025 5.34249 214.278 11.9426Z" fill="#102F4F"/>
<path d="M353.813 7.12576C360.695 13.0455 365.129 19.6933 365.965 28.8172C366.639 39.1706 365.013 47.1733 358.215 55.1922C351.467 62.4243 342.828 66.0317 333.028 66.4422C323.464 66.2677 315.998 62.9098 309.215 56.1922C301.603 46.9657 300.362 37.9425 301.215 26.1922C302.912 17.1624 307.845 10.5393 315.215 5.19217C328.057 -2.31592 341.869 -1.68969 353.813 7.12576Z" fill="#F98E1A"/>
<path d="M186.431 280.069C187.418 280.07 188.406 280.071 189.423 280.072C190.552 280.071 191.681 280.069 192.844 280.068C194.718 280.073 194.718 280.073 196.63 280.079C197.937 280.079 199.244 280.078 200.591 280.078C204.186 280.078 207.78 280.084 211.375 280.091C215.128 280.097 218.881 280.098 222.634 280.099C229.746 280.102 236.857 280.11 243.969 280.12C252.063 280.131 260.157 280.137 268.251 280.142C284.906 280.152 301.561 280.17 318.215 280.192C318.545 280.852 318.875 281.512 319.215 282.192C318.555 282.192 317.895 282.192 317.215 282.192C317.218 282.896 317.221 283.599 317.224 284.323C317.29 301.424 317.34 318.524 317.371 335.625C317.386 343.894 317.407 352.164 317.442 360.433C317.472 367.64 317.491 374.846 317.498 382.053C317.502 385.87 317.511 389.686 317.533 393.503C317.553 397.094 317.559 400.685 317.555 404.276C317.556 406.226 317.572 408.175 317.589 410.125C317.585 411.282 317.58 412.439 317.576 413.63C317.579 414.638 317.582 415.646 317.585 416.684C317.162 419.557 316.469 420.435 314.215 422.192C313.555 421.862 312.895 421.532 312.215 421.192C312.702 420.811 313.189 420.43 313.691 420.038C315.774 417.517 315.599 415.917 315.614 412.668C315.627 411.52 315.639 410.372 315.652 409.188C315.651 407.927 315.649 406.666 315.648 405.367C315.657 404.027 315.667 402.687 315.679 401.346C315.706 397.706 315.716 394.066 315.722 390.426C315.731 386.622 315.757 382.818 315.782 379.015C315.825 371.811 315.854 364.608 315.877 357.404C315.909 347.671 315.964 337.937 316.019 328.203C316.103 312.866 316.157 297.529 316.215 282.192C273.315 282.192 230.415 282.192 186.215 282.192C186.215 300.342 186.215 318.492 186.215 337.192C206.675 337.192 227.135 337.192 248.215 337.192C248.215 337.852 248.215 338.512 248.215 339.192C248.875 339.192 249.535 339.192 250.215 339.192C250.339 345.385 250.43 351.577 250.49 357.771C250.515 359.878 250.549 361.985 250.593 364.092C250.653 367.12 250.682 370.148 250.704 373.177C250.73 374.118 250.755 375.06 250.782 376.031C250.785 382.581 250.785 382.581 247.873 385.71C246.996 386.199 246.119 386.688 245.215 387.192C244.223 387.766 243.23 388.34 242.208 388.931C241.179 389.45 240.15 389.97 239.09 390.505C238.057 391.037 237.023 391.57 235.958 392.118C233.215 393.192 233.215 393.192 230.215 392.192C230.215 391.532 230.215 390.872 230.215 390.192C235.495 387.552 240.775 384.912 246.215 382.192C246.545 368.332 246.875 354.472 247.215 340.192C242.41 340.213 237.604 340.234 232.653 340.255C216.155 340.289 199.701 339.814 183.215 339.192C183.192 331.647 183.175 324.102 183.164 316.557C183.158 313.054 183.151 309.551 183.14 306.048C183.127 302.024 183.122 298.001 183.118 293.977C183.11 292.082 183.11 292.082 183.102 290.149C183.102 288.987 183.102 287.826 183.102 286.63C183.099 285.088 183.099 285.088 183.095 283.514C183.254 280.448 183.37 280.239 186.431 280.069Z" fill="#011C40"/>
<path d="M145.215 132.192C150.108 146.871 140.312 164.972 133.942 177.86C131.012 183.661 127.906 189.357 124.683 195C122.324 199.135 120.229 203.281 118.278 207.63C115.517 213.316 111.584 216.98 107.028 221.282C99.6537 228.573 94.8029 238.511 90.4067 247.767C89.2153 250.192 89.2153 250.192 87.2153 253.192C86.5553 253.192 85.8953 253.192 85.2153 253.192C87.311 237.321 101.17 222.326 111.965 211.38C116.563 206.228 118.991 199.566 121.817 193.345C124.141 188.261 126.744 183.357 129.403 178.442C136.567 165.045 142.79 151.695 142.215 136.192C106.517 141.95 75.7971 159.141 49.7974 183.821C47.2153 186.192 47.2153 186.192 45.2153 187.192C45.4927 182.85 47.1622 180.841 50.3142 177.944C50.8797 177.448 51.4452 176.953 52.0278 176.442C52.6146 175.917 53.2014 175.392 53.8059 174.851C76.467 154.832 102.161 142.054 131.215 134.192C132.022 133.964 132.829 133.736 133.661 133.501C137.599 132.43 141.136 131.988 145.215 132.192Z" fill="#021D3F"/>
<path d="M214.278 11.9426C215.609 12.6591 216.924 13.4064 218.215 14.1926C219.247 14.7701 220.278 15.3476 221.34 15.9426C226.937 20.3226 231.615 25.0812 233.215 32.1926C232.555 32.1926 231.895 32.1926 231.215 32.1926C230.885 32.8526 230.555 33.5126 230.215 34.1926C229.947 33.5519 229.679 32.9113 229.403 32.2512C225.908 24.538 221.448 18.9155 213.653 15.2551C206.031 12.845 196.494 12.8291 189.09 15.8801C185.509 17.7885 182.862 20.0926 180.215 23.1926C179.493 24.0176 178.772 24.8426 178.028 25.6926C173.387 32.0932 172.252 40.4171 173.215 48.1926C175.273 56.3425 178.333 63.1832 185.649 67.6926C195.064 72.6171 203.276 73.2806 213.504 70.2121C221.447 67.2251 225.546 62.3508 229.094 54.716C231.126 48.3308 231.198 41.8498 231.215 35.1926C235.045 37.5831 235.045 37.5831 235.782 40.216C235.766 49.7941 232.635 59.0072 226.215 66.1926C218.054 73.6334 209.237 76.454 198.215 76.1926C195.015 75.5574 192.182 74.5343 189.215 73.1926C188.143 72.7182 187.07 72.2438 185.965 71.7551C177.669 67.0415 172.364 59.7315 169.684 50.5754C167.85 41.251 169.383 33.1024 174.09 24.9426C183.6 12.6363 199.025 5.34249 214.278 11.9426Z" fill="#041E3F"/>
<path d="M292.215 205.192C290 211.132 287.169 215.941 283.34 220.942C282.93 221.485 282.52 222.027 282.097 222.586C278.679 226.941 274.906 231.142 269.653 233.192C266.35 233.192 264.921 232.066 262.215 230.192C259.977 227.817 259.977 227.817 257.903 225.192C256.857 223.893 256.857 223.893 255.79 222.567C254.215 220.192 254.215 220.192 254.215 217.192C263.323 213.592 272.447 210.036 281.653 206.692C282.368 206.425 283.082 206.158 283.819 205.883C288.867 204.076 288.867 204.076 292.215 205.192Z" fill="#0F3152"/>
<path d="M6.21551 251.192C6.54551 251.852 6.87551 252.512 7.21551 253.192C7.87551 253.192 8.53551 253.192 9.21551 253.192C9.09434 253.847 8.97317 254.502 8.84833 255.177C8.29676 258.181 7.75635 261.187 7.21551 264.192C7.03633 265.153 6.85715 266.113 6.67254 267.103C4.65346 278.382 3.89403 289.741 4.21551 301.192C4.23227 302.301 4.24903 303.41 4.26629 304.552C5.62116 341.869 20.157 382.195 46.8405 409.005C47.6243 409.727 48.408 410.449 49.2155 411.192C48.8855 411.852 48.5555 412.512 48.2155 413.192C43.1984 410.207 39.9081 406.846 36.3405 402.255C35.8188 401.591 35.297 400.927 34.7595 400.243C30.0612 394.168 26.003 387.88 22.2155 381.192C21.8807 380.616 21.5458 380.039 21.2009 379.444C12.7937 364.903 7.84139 349.533 4.21551 333.192C4.06985 332.545 3.92418 331.898 3.77411 331.23C-2.21685 304.258 -0.271091 277.832 6.21551 251.192Z" fill="#042043"/>
<path d="M459.215 1.19247C460.551 3.86348 460.342 5.90479 460.345 8.8956C460.348 10.0902 460.351 11.2849 460.354 12.5157C460.352 13.8115 460.35 15.1074 460.348 16.4425C460.349 17.78 460.35 19.1176 460.351 20.4552C460.353 23.2595 460.35 26.0639 460.346 28.8683C460.34 32.4664 460.343 36.0646 460.349 39.6628C460.353 42.4251 460.352 45.1874 460.349 47.9497C460.348 49.9229 460.351 51.896 460.354 53.8692C460.35 55.6612 460.35 55.6612 460.345 57.4893C460.344 58.5448 460.343 59.6002 460.342 60.6876C460.215 63.1925 460.215 63.1925 459.215 65.1925C457.047 65.5362 457.047 65.5362 454.215 65.1925C452.213 63.3915 450.602 61.7413 448.903 59.6925C448.448 59.1678 447.994 58.6432 447.526 58.1026C446.41 56.8101 445.311 55.5027 444.215 54.1925C442.565 55.8425 440.915 57.4925 439.215 59.1925C437.823 55.0166 439.392 53.0577 441.215 49.1925C442.535 49.1925 443.855 49.1925 445.215 49.1925C447.25 51.2745 447.25 51.2745 449.278 54.005C451.501 56.9626 453.589 59.5661 456.215 62.1925C456.215 42.7225 456.215 23.2525 456.215 3.19247C452.981 4.80941 451.319 5.82196 448.825 8.20419C448.197 8.79781 447.569 9.39142 446.922 10.003C446.277 10.6224 445.631 11.2418 444.965 11.88C440.475 16.1545 435.937 20.3362 431.255 24.4002C427.695 27.5288 424.237 30.7653 420.778 34.005C419.7 35.0056 419.7 35.0056 418.6 36.0265C417.918 36.6652 417.235 37.3039 416.532 37.962C415.918 38.5354 415.303 39.1088 414.671 39.6996C413.111 41.1485 413.111 41.1485 412.215 43.1925C414.525 43.1925 416.835 43.1925 419.215 43.1925C418.885 43.8525 418.555 44.5125 418.215 45.1925C415.34 45.9425 415.34 45.9425 412.215 46.1925C411.225 45.5325 410.235 44.8725 409.215 44.1925C409.465 41.8175 409.465 41.8175 410.215 39.1925C412.153 38.13 412.153 38.13 414.215 37.1925C414.898 35.8673 415.566 34.5344 416.215 33.1925C417.7 32.6975 417.7 32.6975 419.215 32.1925C419.545 31.2025 419.875 30.2125 420.215 29.1925C421.641 27.755 421.641 27.755 423.528 26.1925C427.123 23.1442 430.626 20.0127 434.09 16.8175C435.119 15.8733 436.147 14.9293 437.176 13.9854C439.143 12.1793 441.106 10.3688 443.067 8.55575C443.941 7.75525 444.815 6.95474 445.715 6.12997C446.489 5.41712 447.262 4.70427 448.059 3.96982C451.947 0.7654 454.277 -0.409053 459.215 1.19247Z" fill="#F8890D"/>
<path d="M426.215 82.1924C427.205 82.1924 428.195 82.1924 429.215 82.1924C427.768 87.2829 425.529 91.3342 422.715 95.7549C422.051 96.8054 422.051 96.8054 421.373 97.8772C417.037 104.633 412.282 110.972 407.215 117.192C406.786 117.724 406.357 118.256 405.916 118.804C388.441 140.378 366.463 160.112 341.215 172.192C340.225 171.532 339.235 170.872 338.215 170.192C338.687 169.912 339.159 169.631 339.646 169.341C369.692 151.395 395.36 130.378 414.84 100.923C415.294 100.352 415.748 99.7807 416.215 99.1924C416.875 99.1924 417.535 99.1924 418.215 99.1924C418.311 98.4976 418.406 97.8028 418.504 97.0869C419.358 93.6124 420.8 90.9738 422.59 87.8799C423.196 86.8112 423.802 85.7426 424.426 84.6416C425.017 83.8334 425.607 83.0251 426.215 82.1924Z" fill="#F9890C"/>
<path d="M125.215 384.192C130.071 384.413 133.41 385.673 137.715 387.942C162.815 400.945 195.418 402.093 222.278 393.567C224.601 392.801 226.908 392.006 229.215 391.192C229.71 392.677 229.71 392.677 230.215 394.192C199.4 404.957 167.369 405.782 137.215 392.192C133.054 390.133 129.01 387.874 125.215 385.192C125.215 384.862 125.215 384.532 125.215 384.192Z" fill="#021C40"/>
<path d="M66.2153 428.192C69.6774 429.449 72.3126 430.881 75.2153 433.13C88.5484 442.628 103.621 449.403 119.215 454.192C120.381 454.569 121.546 454.945 122.747 455.333C137.916 459.995 153.898 462.054 169.715 462.755C171.092 462.82 171.092 462.82 172.497 462.886C174.736 462.991 176.976 463.093 179.215 463.192C177.215 465.192 177.215 465.192 175.292 465.344C174.142 465.275 174.142 465.275 172.969 465.204C171.713 465.134 171.713 465.134 170.432 465.062C169.556 465.002 168.68 464.942 167.778 464.88C166.47 464.807 166.47 464.807 165.135 464.733C161.589 464.518 158.605 464.322 155.215 463.192C155.215 463.852 155.215 464.512 155.215 465.192C125.208 461.727 90.7642 452.408 67.2153 432.192C66.4028 429.962 66.4028 429.962 66.2153 428.192Z" fill="#021E3F"/>
<path d="M309.215 186.192C309.215 186.852 309.215 187.512 309.215 188.192C308.266 188.546 308.266 188.546 307.298 188.907C296.13 193.075 284.967 197.249 273.869 201.601C269.982 203.124 266.086 204.622 262.176 206.087C250.447 210.486 238.904 215.216 227.423 220.23C224.36 221.565 221.288 222.879 218.215 224.192C218.215 223.532 218.215 222.872 218.215 222.192C218.875 222.192 219.535 222.192 220.215 222.192C220.545 221.202 220.875 220.212 221.215 219.192C223.582 217.769 223.582 217.769 226.735 216.302C228.471 215.49 228.471 215.49 230.241 214.662C231.503 214.088 232.765 213.515 234.028 212.942C234.665 212.65 235.302 212.358 235.958 212.056C245.167 207.834 254.441 204.121 264.063 200.942C271.482 198.478 278.739 195.576 286.022 192.742C289.084 191.552 292.15 190.372 295.215 189.192C296.244 188.788 297.272 188.384 298.332 187.967C299.804 187.404 299.804 187.404 301.305 186.829C302.616 186.32 302.616 186.32 303.953 185.8C306.215 185.192 306.215 185.192 309.215 186.192Z" fill="#F68B12"/>
<path d="M123.465 59.1301C125.36 59.1436 125.36 59.1436 127.293 59.1575C128.258 59.1691 129.222 59.1807 130.215 59.1926C130.215 59.8526 130.215 60.5126 130.215 61.1926C131.865 61.1926 133.515 61.1926 135.215 61.1926C135.215 61.5226 135.215 61.8526 135.215 62.1926C129.275 62.5226 123.335 62.8526 117.215 63.1926C119.195 64.6157 119.195 64.6157 121.215 66.0676C123.465 67.6848 123.465 67.6848 125.215 69.1926C125.215 69.8526 125.215 70.5126 125.215 71.1926C125.799 71.4453 126.383 71.6979 126.985 71.9582C140.022 79.1734 151.228 102.343 155.215 116.193C155.291 118.525 155.309 120.861 155.215 123.193C154.225 122.863 153.235 122.533 152.215 122.193C151.188 119.568 151.188 119.568 150.278 116.193C144.32 95.6095 131.66 76.3944 113.614 64.4465C113.152 64.0327 112.691 63.6189 112.215 63.1926C112.215 62.2026 112.215 61.2126 112.215 60.1926C115.969 58.9887 119.548 59.0938 123.465 59.1301Z" fill="#041F42"/>
<path d="M154.215 129.192C155.205 129.192 156.195 129.192 157.215 129.192C162.623 140.008 155.21 156.944 151.696 167.585C149.682 173.363 147.15 178.362 143.829 183.517C141.951 186.632 140.636 189.845 139.215 193.192C137.873 195.868 136.455 198.499 135.028 201.13C134.66 201.814 134.292 202.498 133.913 203.202C133.016 204.867 132.116 206.53 131.215 208.192C130.049 206.555 130.049 206.555 129.215 204.192C130.178 201.482 130.178 201.482 131.872 198.388C132.48 197.253 133.088 196.119 133.714 194.95C134.041 194.356 134.369 193.762 134.706 193.15C136.384 190.103 138.009 187.027 139.641 183.954C139.96 183.358 140.278 182.761 140.606 182.147C145.533 172.893 149.652 163.38 152.215 153.192C152.42 152.419 152.625 151.646 152.836 150.849C154.531 143.651 154.406 136.553 154.215 129.192Z" fill="#052243"/>
<path d="M269.215 447.193C269.215 447.853 269.215 448.513 269.215 449.193C251.12 455.809 232.639 461.812 213.465 464.318C212.212 464.485 210.959 464.653 209.668 464.825C206.809 465.13 204.086 465.269 201.215 465.193C201.215 464.533 201.215 463.873 201.215 463.193C200.555 463.523 199.895 463.853 199.215 464.193C197.767 464.276 196.315 464.3 194.864 464.29C194.013 464.287 193.162 464.284 192.286 464.28C191.396 464.272 190.507 464.264 189.59 464.255C188.693 464.251 187.796 464.246 186.872 464.241C184.653 464.23 182.434 464.213 180.215 464.193C180.215 463.863 180.215 463.533 180.215 463.193C181.329 463.141 181.329 463.141 182.465 463.088C209.429 461.753 238.367 458.854 263.204 447.419C266.215 446.193 266.215 446.193 269.215 447.193Z" fill="#011C3E"/>
<path d="M251.215 92.1924C251.545 92.1924 251.875 92.1924 252.215 92.1924C254.281 104.871 251.196 113.63 243.872 123.981C236.33 134.048 228.323 142.916 218.465 150.755C217.922 151.197 217.379 151.639 216.82 152.095C214.26 154.071 212.58 155.157 209.325 155.47C208.281 155.332 208.281 155.332 207.215 155.192C210.54 151.723 213.924 148.844 217.84 146.067C234.126 133.963 247.123 117.787 250.59 97.3174C250.817 95.6115 251.034 93.9037 251.215 92.1924Z" fill="#0B243F"/>
<path d="M43.2153 188.192C43.2153 191.972 42.2686 192.621 39.8403 195.442C27.0859 211.049 17.265 228.915 11.2153 248.192C10.0076 244.569 10.6722 243.551 12.2153 240.192C11.5553 239.862 10.8953 239.532 10.2153 239.192C17.2635 223.35 25.1327 208.719 35.5903 194.88C36.007 194.322 36.4237 193.765 36.853 193.191C38.9216 190.516 39.9323 189.287 43.2153 188.192Z" fill="#041E42"/>
<path d="M170.215 75.1924C175.82 76.0892 180.166 78.1332 185.028 81.0049C197.644 88.4559 210.648 94.0509 225.215 96.1924C224.225 96.6874 224.225 96.6874 223.215 97.1924C223.215 97.8524 223.215 98.5124 223.215 99.1924C207.846 100.98 185.258 87.1315 173.215 78.1924C172.191 77.2174 171.181 76.2258 170.215 75.1924Z" fill="#042143"/>
<path d="M183.215 337.192C204.665 337.192 226.115 337.192 248.215 337.192C247.555 337.522 246.895 337.852 246.215 338.192C246.215 338.852 246.215 339.512 246.215 340.192C225.188 340.329 204.227 340.017 183.215 339.192C183.215 338.532 183.215 337.872 183.215 337.192Z" fill="#000B29"/>
<path d="M84.2153 331.192C86.1983 333.175 87.0091 334.705 88.2153 337.192C89.2053 338.677 89.2053 338.677 90.2153 340.192C90.984 341.481 91.7451 342.775 92.5005 344.071C97.2816 352.166 101.888 359.638 108.536 366.345C110.215 368.192 110.215 368.192 111.215 371.192C113.055 372.237 113.055 372.237 115.215 373.192C116.653 374.205 118.07 375.248 119.465 376.317C120.172 376.856 120.878 377.395 121.606 377.95C122.137 378.36 122.668 378.77 123.215 379.192C121.895 379.852 120.575 380.512 119.215 381.192C104.122 367.734 91.4502 353.4 84.2153 334.192C84.2153 333.202 84.2153 332.212 84.2153 331.192Z" fill="#031C3B"/>
<path d="M214.446 225.087C215.322 225.634 215.322 225.634 216.215 226.193C215.621 226.472 215.027 226.752 214.415 227.04C199.155 234.421 184.898 244.446 172.39 255.877C170.86 257.235 170.86 257.235 168.215 259.193C167.225 258.863 166.235 258.533 165.215 258.193C175.696 246.963 188.374 238.393 201.364 230.34C202.968 229.346 204.561 228.335 206.153 227.321C206.937 226.846 207.72 226.37 208.528 225.88C209.163 225.492 209.799 225.104 210.454 224.704C212.215 224.193 212.215 224.193 214.446 225.087Z" fill="#F78D0F"/>
<path d="M142.215 220.192C143.236 223.354 143.362 223.895 141.809 227.048C141.118 228.147 140.427 229.247 139.715 230.38C132.601 242.171 127.92 254.963 124.215 268.192C123.555 268.192 122.895 268.192 122.215 268.192C121.555 269.512 120.895 270.832 120.215 272.192C121.659 260.437 126.138 249.945 131.153 239.317C131.559 238.45 131.966 237.583 132.385 236.69C135.207 230.847 138.483 225.498 142.215 220.192Z" fill="#072942"/>
<path d="M391.215 74.1924C392.535 74.1924 393.855 74.1924 395.215 74.1924C393.632 79.5696 390.064 83.3583 386.528 87.5674C385.928 88.297 385.328 89.0266 384.709 89.7783C380.779 94.5069 376.642 98.9258 372.215 103.192C371.225 102.862 370.235 102.532 369.215 102.192C374.69 95.6817 380.448 89.4425 386.215 83.1924C385.295 83.4225 385.295 83.4225 384.356 83.6572C383.296 83.9221 383.296 83.9221 382.215 84.1924C381.102 84.4708 381.102 84.4708 379.965 84.7549C379.099 84.9714 379.099 84.9714 378.215 85.1924C379.527 81.2582 381.214 80.6878 384.715 78.5674C388.151 76.626 388.151 76.626 391.215 74.1924Z" fill="#F6850B"/>
<path d="M118.215 240.192C118.545 240.192 118.875 240.192 119.215 240.192C119.162 241.372 119.162 241.372 119.108 242.576C118.95 246.156 118.801 249.737 118.653 253.317C118.597 254.555 118.541 255.792 118.483 257.067C118.435 258.266 118.386 259.465 118.336 260.7C118.289 261.8 118.242 262.9 118.194 264.033C118.226 268.822 118.533 272.17 121.215 276.192C121.192 278.454 121.192 278.454 120.84 280.88C120.729 281.688 120.619 282.496 120.504 283.329C120.409 283.944 120.314 284.559 120.215 285.192C119.225 285.192 118.235 285.192 117.215 285.192C114.012 278.785 115.063 269.577 115.09 262.567C115.086 261.57 115.083 260.572 115.079 259.544C115.085 254.318 115.307 249.341 116.215 244.192C116.875 244.192 117.535 244.192 118.215 244.192C118.215 242.872 118.215 241.552 118.215 240.192Z" fill="#052344"/>
<path d="M201.215 158.192C202.535 158.852 203.855 159.512 205.215 160.192C204.452 160.667 203.689 161.141 202.903 161.63C198.708 164.42 194.9 167.677 191.028 170.892C188.53 172.935 185.987 174.884 183.403 176.817C179.405 179.887 176.35 183.253 173.215 187.192C171.895 186.862 170.575 186.532 169.215 186.192C179.238 175.883 189.586 166.689 201.215 158.192Z" fill="#072042"/>
<path d="M254.215 217.192C255.205 217.687 255.205 217.687 256.215 218.192C257.892 217.913 259.561 217.584 261.215 217.192C260.555 218.512 259.895 219.832 259.215 221.192C260.614 223.829 262.083 226.091 264.215 228.192C268.361 229.235 268.361 229.235 272.215 228.192C275.255 225.826 277.706 223.102 280.215 220.192C281.206 219.183 282.203 218.18 283.215 217.192C282.441 223.443 278.77 227.093 274.215 231.192C271.593 232.742 270.361 232.955 267.215 233.192C263.138 231.232 260.688 228.717 257.903 225.192C257.205 224.326 256.508 223.46 255.79 222.567C254.215 220.192 254.215 220.192 254.215 217.192Z" fill="#081F3A"/>
<path d="M77.2155 284.192C77.5455 284.192 77.8755 284.192 78.2155 284.192C78.276 285.119 78.3366 286.046 78.399 287.001C78.4828 288.199 78.5666 289.396 78.653 290.63C78.7342 291.825 78.8154 293.02 78.899 294.251C78.892 297.078 78.892 297.078 80.2155 298.192C80.3518 300.065 80.4481 301.941 80.528 303.817C80.9688 310.579 82.5127 316.535 84.4733 322.978C85.1675 325.985 85.3249 327.377 84.2155 330.192C83.5555 329.862 82.8955 329.532 82.2155 329.192C81.4334 326.772 80.763 324.406 80.153 321.942C79.9796 321.273 79.8062 320.604 79.6276 319.915C78.1721 314.238 77.0877 309.107 77.1178 303.235C77.121 302.124 77.1242 301.012 77.1276 299.866C77.1359 298.716 77.1443 297.565 77.153 296.38C77.1575 295.21 77.162 294.04 77.1666 292.835C77.1784 289.954 77.1948 287.073 77.2155 284.192Z" fill="#032140"/>
<path d="M251.215 37.1924C254.794 40.4679 256.296 44.2464 258.215 48.6299C258.57 49.4345 258.924 50.2391 259.29 51.0681C262.638 58.8578 265.462 66.6139 265.215 75.1924C262.712 72.9853 261.678 71.2515 260.75 68.0596C260.508 67.2526 260.265 66.4457 260.014 65.6143C259.771 64.7738 259.528 63.9333 259.278 63.0674C257.569 57.2281 255.688 51.7055 253.056 46.2107C251.808 43.2139 251.49 40.4146 251.215 37.1924Z" fill="#F6880E"/>
<path d="M167.215 188.192C167.875 189.182 168.535 190.172 169.215 191.192C168.731 191.654 168.246 192.115 167.747 192.591C160.284 199.853 153.925 207.656 148.54 216.575C148.103 217.109 147.666 217.643 147.215 218.192C146.225 218.192 145.235 218.192 144.215 218.192C149.305 207.228 158.676 196.732 167.215 188.192Z" fill="#051B3C"/>
<path d="M136.215 299.192C136.875 299.192 137.535 299.192 138.215 299.192C137.287 304.445 135.391 309.041 133.34 313.942C132.988 314.818 132.637 315.693 132.274 316.595C131.927 317.426 131.58 318.258 131.223 319.114C130.91 319.873 130.597 320.632 130.274 321.414C129.215 323.192 129.215 323.192 126.215 324.192C126.021 318.666 126.467 314.436 128.215 309.192C129.205 310.677 129.205 310.677 130.215 312.192C132.195 307.902 134.175 303.612 136.215 299.192Z" fill="#E88216"/>
<path d="M354.215 54.1924C354.875 55.1824 355.535 56.1724 356.215 57.1924C347.271 63.8681 339.394 66.7333 328.215 66.1924C327.885 65.5324 327.555 64.8724 327.215 64.1924C325.199 63.0589 325.199 63.0589 323.215 62.1924C324.254 62.2388 325.293 62.2852 326.364 62.333C337.128 62.6689 345.931 61.924 354.215 54.1924Z" fill="#F98908"/>
<path d="M123.465 59.1301C125.36 59.1436 125.36 59.1436 127.293 59.1575C128.258 59.1691 129.222 59.1807 130.215 59.1926C130.215 59.8526 130.215 60.5126 130.215 61.1926C131.865 61.1926 133.515 61.1926 135.215 61.1926C135.215 61.5226 135.215 61.8526 135.215 62.1926C129.275 62.5226 123.335 62.8526 117.215 63.1926C119.195 64.8426 121.175 66.4926 123.215 68.1926C122.225 68.5226 121.235 68.8526 120.215 69.1926C118.172 68.0832 118.172 68.0832 116.028 66.4426C115.312 65.9115 114.597 65.3804 113.86 64.8332C113.317 64.2918 112.774 63.7504 112.215 63.1926C112.215 62.2026 112.215 61.2126 112.215 60.1926C115.969 58.9887 119.548 59.0938 123.465 59.1301Z" fill="#00163B"/>
<path d="M155.215 463.192C156.191 463.246 156.191 463.246 157.187 463.3C160.134 463.458 163.081 463.606 166.028 463.755C167.052 463.811 168.076 463.867 169.131 463.925C170.114 463.973 171.097 464.022 172.11 464.071C173.016 464.118 173.922 464.166 174.855 464.214C177.369 464.312 177.369 464.312 180.215 463.192C181.843 463.111 183.473 463.085 185.102 463.095C186.04 463.098 186.978 463.101 187.944 463.105C189.409 463.117 189.409 463.117 190.903 463.13C191.891 463.134 192.879 463.139 193.897 463.144C196.336 463.155 198.776 463.172 201.215 463.192C201.215 463.852 201.215 464.512 201.215 465.192C196.819 466.279 192.528 466.337 188.028 466.325C187.248 466.326 186.468 466.327 185.664 466.328C184.02 466.329 182.376 466.327 180.732 466.323C178.224 466.317 175.716 466.323 173.208 466.329C171.606 466.328 170.004 466.327 168.403 466.325C167.657 466.327 166.911 466.329 166.142 466.331C162.375 466.314 158.878 466.098 155.215 465.192C155.215 464.532 155.215 463.872 155.215 463.192Z" fill="#0B2848"/>
<path d="M292.215 205.192C291.649 206.657 291.061 208.114 290.465 209.567C290.14 210.379 289.816 211.191 289.481 212.028C288.02 214.525 286.877 215.175 284.215 216.192C284.875 213.882 285.535 211.572 286.215 209.192C285.24 209.565 284.264 209.937 283.258 210.321C281.973 210.799 280.688 211.277 279.403 211.755C278.439 212.125 278.439 212.125 277.456 212.503C272.555 214.306 272.555 214.306 269.215 213.192C269.781 212.999 270.347 212.806 270.93 212.606C271.664 212.346 272.397 212.086 273.153 211.817C274.249 211.434 274.249 211.434 275.368 211.044C277.402 210.34 277.402 210.34 278.215 208.192C280.614 207.087 280.614 207.087 283.59 206.005C284.567 205.64 285.545 205.275 286.551 204.899C289.215 204.192 289.215 204.192 292.215 205.192Z" fill="#0E1E38"/>
<path d="M250.215 129.192C250.545 129.192 250.875 129.192 251.215 129.192C251.609 133.024 251.528 134.736 249.317 137.966C248.5 138.824 247.682 139.683 246.84 140.567C246.028 141.441 245.216 142.315 244.379 143.216C242.215 145.192 242.215 145.192 240.215 145.192C239.968 145.791 239.72 146.389 239.465 147.005C238.052 149.479 236.565 150.626 234.215 152.192C234.215 150.872 234.215 149.552 234.215 148.192C234.875 148.192 235.535 148.192 236.215 148.192C236.442 147.636 236.669 147.079 236.903 146.505C238.579 143.552 240.812 141.596 243.215 139.192C247.076 134.43 247.076 134.43 250.215 129.192Z" fill="#F08A11"/>
<path d="M173.215 27.1924C174.205 27.5224 175.195 27.8524 176.215 28.1924C175.906 28.873 175.597 29.5536 175.278 30.2549C174.082 33.562 173.625 36.7078 173.215 40.1924C172.885 40.1924 172.555 40.1924 172.215 40.1924C172.215 45.1424 172.215 50.0924 172.215 55.1924C168.849 51.8261 169.046 47.532 168.965 42.9424C168.999 37.952 169.451 30.9569 173.215 27.1924Z" fill="#05264A"/>
<path d="M142.215 220.192C142.954 221.759 142.954 221.759 143.215 224.192C142.034 226.64 140.831 228.837 139.403 231.13C136.466 235.929 136.466 235.929 134.086 241.021C133.009 243.707 131.625 244.666 129.215 246.192C129.803 241.094 132.184 237.066 134.59 232.63C134.99 231.875 135.39 231.12 135.801 230.343C137.722 226.758 139.621 223.347 142.215 220.192Z" fill="#021A39"/>
<path d="M83.2152 257.192C83.8752 257.192 84.5352 257.192 85.2152 257.192C84.5949 263.768 83.0662 269.859 81.2152 276.192C80.5552 276.192 79.8952 276.192 79.2152 276.192C79.2152 278.172 79.2152 280.152 79.2152 282.192C78.8852 282.192 78.5552 282.192 78.2152 282.192C77.7049 273.649 78.3626 264.471 83.2152 257.192Z" fill="#021D3E"/>
<path d="M419.215 31.1924C420.205 31.5224 421.195 31.8524 422.215 32.1924C421.577 32.8189 420.939 33.4454 420.282 34.0908C419.455 34.9081 418.629 35.7254 417.778 36.5674C416.954 37.3795 416.13 38.1916 415.282 39.0283C413.181 41.0159 413.181 41.0159 412.215 43.1924C414.525 43.1924 416.835 43.1924 419.215 43.1924C418.885 43.8524 418.555 44.5124 418.215 45.1924C415.34 45.9424 415.34 45.9424 412.215 46.1924C411.225 45.5324 410.235 44.8724 409.215 44.1924C409.465 41.8174 409.465 41.8174 410.215 39.1924C412.153 38.1299 412.153 38.1299 414.215 37.1924C414.915 35.8759 415.583 34.5422 416.215 33.1924C417.205 32.5324 418.195 31.8724 419.215 31.1924Z" fill="#F7760A"/>
<path d="M331.215 0.192383C331.215 0.852383 331.215 1.51238 331.215 2.19238C331.875 2.52238 332.535 2.85238 333.215 3.19238C332.272 3.33934 332.272 3.33934 331.309 3.48926C322.96 4.94783 316.642 7.56948 310.215 13.1924C309.885 12.2024 309.555 11.2124 309.215 10.1924C315.644 4.40695 322.33 0.192383 331.215 0.192383Z" fill="#F7860D"/>
<path d="M244.215 26.1924C245.633 26.3075 247.049 26.4349 248.465 26.5674C249.254 26.637 250.043 26.7066 250.856 26.7783C255.168 27.535 257.098 29.0749 260.215 32.1924C254.275 31.2024 254.275 31.2024 248.215 30.1924C249.205 32.1724 250.195 34.1524 251.215 36.1924C249.403 36.0049 249.403 36.0049 247.215 35.1924C244.682 31.8443 244.215 30.4911 244.215 26.1924Z" fill="#E7740E"/>
<path d="M291.215 434.192C291.875 434.522 292.535 434.852 293.215 435.192C292.225 435.522 291.235 435.852 290.215 436.192C289.858 437.095 289.858 437.095 289.493 438.017C287.507 441.399 284.232 442.468 280.778 444.005C280.097 444.329 279.415 444.653 278.713 444.987C273.607 447.323 273.607 447.323 270.215 446.192C272.289 443.944 274.194 442.523 276.938 441.185C277.641 440.838 278.344 440.491 279.069 440.134C279.798 439.782 280.527 439.43 281.278 439.067C282.011 438.708 282.743 438.348 283.499 437.978C285.402 437.044 287.308 436.118 289.215 435.192C289.875 434.862 290.535 434.532 291.215 434.192Z" fill="#021E44"/>
<path d="M126.215 210.192C126.875 210.852 127.535 211.512 128.215 212.192C127.106 219.178 124.75 225.609 122.215 232.192C121.225 232.192 120.235 232.192 119.215 232.192C120.948 224.554 123.084 217.377 126.215 210.192Z" fill="#042041"/>
<path d="M1.21533 275.192C2.20533 275.522 3.19533 275.852 4.21533 276.192C4.32573 284.595 4.16992 292.84 3.21533 301.192C2.88533 301.192 2.55533 301.192 2.21533 301.192C2.15475 300.349 2.09416 299.506 2.03174 298.638C1.94795 297.542 1.86416 296.446 1.77783 295.317C1.69662 294.227 1.61541 293.136 1.53174 292.013C1.38532 289.245 1.38532 289.245 0.215332 287.192C0.303136 285.147 0.457747 283.105 0.652832 281.067C0.754668 279.972 0.856504 278.876 0.961426 277.747C1.04521 276.904 1.129 276.061 1.21533 275.192Z" fill="#011B3C"/>
<path d="M180.215 220.192C180.875 220.522 181.535 220.852 182.215 221.192C179.997 223.329 177.764 225.45 175.528 227.567C174.589 228.472 174.589 228.472 173.631 229.396C170.348 232.49 167.658 234.918 163.215 236.192C170.525 224.204 170.525 224.204 176.309 222.618C176.938 222.478 177.567 222.337 178.215 222.192C178.875 221.532 179.535 220.872 180.215 220.192Z" fill="#F59811"/>
<path d="M330.215 174.192C330.215 175.182 330.215 176.172 330.215 177.192C326.794 180.613 321.74 182.623 317.215 184.192C315.895 184.192 314.575 184.192 313.215 184.192C313.215 183.532 313.215 182.872 313.215 182.192C318.825 179.552 324.435 176.912 330.215 174.192Z" fill="#F8870C"/>
<path d="M148.215 63.1924C150.705 63.8199 152.903 64.5193 155.278 65.4424C155.915 65.6731 156.553 65.9039 157.209 66.1416C160.053 67.2022 162.047 68.024 164.215 70.1924C164.215 70.8524 164.215 71.5124 164.215 72.1924C157.603 70.3702 151.41 68.1401 145.215 65.1924C146.205 64.5324 147.195 63.8724 148.215 63.1924Z" fill="#031A3C"/>
<path d="M265.215 76.1924C265.545 76.1924 265.875 76.1924 266.215 76.1924C266.215 84.1124 266.215 92.0324 266.215 100.192C265.555 100.192 264.895 100.192 264.215 100.192C264.215 102.832 264.215 105.472 264.215 108.192C263.225 108.192 262.235 108.192 261.215 108.192C261.875 103.902 262.535 99.6124 263.215 95.1924C263.875 95.1924 264.535 95.1924 265.215 95.1924C265.215 88.9224 265.215 82.6524 265.215 76.1924Z" fill="#F4830C"/>
<path d="M163.215 213.192C163.875 213.522 164.535 213.852 165.215 214.192C162.74 217.657 162.74 217.657 160.215 221.192C161.535 220.532 162.855 219.872 164.215 219.192C163.555 220.512 162.895 221.832 162.215 223.192C161.555 223.192 160.895 223.192 160.215 223.192C159.968 223.832 159.72 224.471 159.465 225.13C158.215 227.192 158.215 227.192 156.09 227.942C155.162 228.066 155.162 228.066 154.215 228.192C154.816 224.185 156.881 221.638 159.278 218.442C160.378 216.965 160.378 216.965 161.5 215.458C162.066 214.71 162.632 213.963 163.215 213.192Z" fill="#BA6D23"/>
<path d="M210.215 93.1924C215.165 94.1824 220.115 95.1724 225.215 96.1924C224.225 96.6874 224.225 96.6874 223.215 97.1924C223.215 97.8524 223.215 98.5124 223.215 99.1924C217.413 99.555 213.575 98.4492 208.215 96.1924C208.875 95.8624 209.535 95.5324 210.215 95.1924C210.215 94.5324 210.215 93.8724 210.215 93.1924Z" fill="#021C39"/>
<path d="M312.215 422.192C309.81 427.891 304.7 431.054 299.215 433.567C298.555 433.774 297.895 433.98 297.215 434.192C296.555 433.532 295.895 432.872 295.215 432.192C297.67 430.52 300.129 428.854 302.59 427.192C303.289 426.715 303.988 426.238 304.708 425.747C305.378 425.296 306.048 424.845 306.739 424.38C307.357 423.961 307.975 423.542 308.611 423.11C310.215 422.192 310.215 422.192 312.215 422.192Z" fill="#032144"/>
<path d="M296.215 58.1924C300.981 59.594 304.174 62.3465 307.215 66.1924C307.215 66.8524 307.215 67.5124 307.215 68.1924C308.535 68.8524 309.855 69.5124 311.215 70.1924C310.225 70.5224 309.235 70.8524 308.215 71.1924C306.313 69.8994 306.313 69.8994 304.278 68.0049C303.578 67.3578 302.878 66.7107 302.157 66.0439C301.196 65.1274 301.196 65.1274 300.215 64.1924C298.978 63.0477 298.978 63.0477 297.715 61.8799C296.215 60.1924 296.215 60.1924 296.215 58.1924Z" fill="#F9880D"/>
<path d="M278.215 210.192C275.245 211.182 272.275 212.172 269.215 213.192C269.215 213.852 269.215 214.512 269.215 215.192C264.595 216.512 259.975 217.832 255.215 219.192C256.215 216.192 256.215 216.192 258.133 215.193C258.953 214.909 259.773 214.625 260.618 214.333C261.508 214.022 262.398 213.712 263.315 213.391C264.251 213.078 265.188 212.765 266.153 212.442C267.552 211.949 267.552 211.949 268.979 211.446C275.947 209.058 275.947 209.058 278.215 210.192Z" fill="#1A2E45"/>
<path d="M234.215 186.192C234.875 187.182 235.535 188.172 236.215 189.192C234.093 190.197 231.967 191.196 229.84 192.192C228.065 193.028 228.065 193.028 226.254 193.88C223.215 195.192 223.215 195.192 221.215 195.192C221.215 194.202 221.215 193.212 221.215 192.192C225.505 190.212 229.795 188.232 234.215 186.192Z" fill="#F49212"/>
<path d="M203.215 172.192C203.215 173.182 203.215 174.172 203.215 175.192C201.583 176.567 199.913 177.899 198.215 179.192C197.225 180.677 197.225 180.677 196.215 182.192C195.225 182.192 194.235 182.192 193.215 182.192C193.133 182.811 193.05 183.43 192.965 184.067C192.215 186.192 192.215 186.192 190.278 187.38C189.597 187.648 188.917 187.916 188.215 188.192C187.555 188.522 186.895 188.852 186.215 189.192C187.616 183.826 191.024 181.589 195.278 178.442C196.561 177.469 197.843 176.495 199.125 175.521C200.145 174.752 201.165 173.984 202.215 173.192C202.545 172.862 202.875 172.532 203.215 172.192Z" fill="#EC8F21"/>
<path d="M360.215 109.192C361.205 109.522 362.195 109.852 363.215 110.192C360.292 114.285 356.846 118.06 352.215 120.192C349.997 119.825 349.997 119.825 348.215 119.192C349.389 118.235 349.389 118.235 350.586 117.259C351.598 116.433 352.61 115.606 353.653 114.755C354.662 113.931 355.672 113.107 356.711 112.259C358.513 110.78 358.513 110.78 360.215 109.192Z" fill="#F9880A"/>
<path d="M426.215 54.1924C426.215 58.0753 424.837 59.6599 422.715 62.8799C422.066 63.8738 421.416 64.8676 420.747 65.8916C420.241 66.6509 419.736 67.4101 419.215 68.1924C418.225 67.5324 417.235 66.8724 416.215 66.1924C417.309 64.3735 418.416 62.5625 419.528 60.7549C420.143 59.7455 420.758 58.7362 421.391 57.6963C423.215 55.1924 423.215 55.1924 426.215 54.1924Z" fill="#F88910"/>
<path d="M51.2153 415.192C54.9258 416.77 57.5144 419.099 60.4653 421.817C61.3574 422.635 62.2494 423.452 63.1685 424.294C64.1817 425.234 64.1817 425.234 65.2153 426.192C64.8853 426.852 64.5553 427.512 64.2153 428.192C59.006 425.771 54.3814 422.525 51.7778 417.317C51.5922 416.616 51.4066 415.915 51.2153 415.192Z" fill="#031D3C"/>
<path d="M150.215 255.192C150.215 258.914 149.036 260.656 147.215 263.88C146.38 265.371 146.38 265.371 145.528 266.892C144.878 268.03 144.878 268.03 144.215 269.192C143.225 268.532 142.235 267.872 141.215 267.192C142.141 265.374 143.081 263.563 144.028 261.755C144.55 260.746 145.072 259.736 145.61 258.696C147.215 256.192 147.215 256.192 150.215 255.192Z" fill="#F68916"/>
<path d="M119.215 273.192C121.451 276.546 121.388 277.1 120.84 280.88C120.729 281.688 120.619 282.496 120.504 283.329C120.409 283.944 120.314 284.559 120.215 285.192C119.225 285.192 118.235 285.192 117.215 285.192C115.737 282.236 116.155 279.45 116.215 276.192C117.205 276.192 118.195 276.192 119.215 276.192C119.215 275.202 119.215 274.212 119.215 273.192Z" fill="#0F1B29"/>
<path d="M174.215 204.192C174.34 206.567 174.34 206.567 174.215 209.192C173.555 209.852 172.895 210.512 172.215 211.192C171.576 211.027 170.937 210.862 170.278 210.692C169.597 210.527 168.917 210.362 168.215 210.192C167.225 210.852 166.235 211.512 165.215 212.192C167.137 206.723 168.112 204.192 174.215 204.192Z" fill="#EC9325"/>
<path d="M52.2153 176.192C53.2053 176.522 54.1953 176.852 55.2153 177.192C49.065 184.675 49.065 184.675 45.2153 187.192C45.533 181.792 48.4153 179.669 52.2153 176.192Z" fill="#031736"/>
<path d="M251.215 92.1924C251.545 92.1924 251.875 92.1924 252.215 92.1924C253.917 105.826 253.917 105.826 250.215 112.192C249.885 112.192 249.555 112.192 249.215 112.192C248.073 107.396 248.566 104.774 250.215 100.192C250.659 97.5287 250.937 94.8808 251.215 92.1924Z" fill="#0B2843"/>
<path d="M182.215 399.192C185.845 399.192 189.475 399.192 193.215 399.192C193.215 400.182 193.215 401.172 193.215 402.192C187.935 402.192 182.655 402.192 177.215 402.192C177.215 401.862 177.215 401.532 177.215 401.192C178.865 400.862 180.515 400.532 182.215 400.192C182.215 399.862 182.215 399.532 182.215 399.192Z" fill="#001238"/>
<path d="M79.2153 276.192C79.5453 276.192 79.8753 276.192 80.2153 276.192C80.3127 283.287 80.3162 290.174 79.2153 297.192C78.8853 297.192 78.5553 297.192 78.2153 297.192C77.99 294.068 77.7879 290.943 77.5903 287.817C77.5259 286.928 77.4614 286.038 77.395 285.122C77.3435 284.271 77.2919 283.421 77.2388 282.544C77.1864 281.758 77.134 280.973 77.0801 280.164C77.2153 278.192 77.2153 278.192 79.2153 276.192Z" fill="#082A47"/>
<path d="M241.215 96.1922C240.133 97.6805 240.133 97.6805 238.215 99.1922C235.079 99.4851 235.079 99.4851 231.528 99.3797C229.759 99.3391 229.759 99.3391 227.954 99.2976C226.598 99.2454 226.598 99.2454 225.215 99.1922C225.215 98.8622 225.215 98.5322 225.215 98.1922C227.195 98.1922 229.175 98.1922 231.215 98.1922C231.215 97.5322 231.215 96.8722 231.215 96.1922C234.911 95.2419 237.52 95.2419 241.215 96.1922Z" fill="#021E44"/>
<path d="M128.215 309.192C129.131 312.281 129.215 314.986 129.215 318.192C129.545 319.182 129.875 320.172 130.215 321.192C129.225 322.677 129.225 322.677 128.215 324.192C127.555 324.192 126.895 324.192 126.215 324.192C126.021 318.666 126.467 314.436 128.215 309.192Z" fill="#C36110"/>
<path d="M130.216 299.192C130.876 299.192 131.536 299.192 132.216 299.192C132.102 300.818 131.974 302.443 131.841 304.067C131.736 305.425 131.736 305.425 131.63 306.81C131.216 309.192 131.216 309.192 129.216 311.192C128.291 306.476 127.986 303.52 130.216 299.192Z" fill="#F18E16"/>
<path d="M216.215 71.1921C214.163 73.4399 213.209 74.1944 210.215 75.1921C208.487 75.2602 206.757 75.2771 205.028 75.2546C203.676 75.2411 203.676 75.2411 202.297 75.2273C201.61 75.2157 200.923 75.2041 200.215 75.1921C205.59 72.4469 210.103 70.9011 216.215 71.1921Z" fill="#072548"/>
<path d="M255.215 205.192C255.545 206.182 255.875 207.172 256.215 208.192C252.385 209.995 249.434 210.389 245.215 210.192C248.387 206.68 250.468 205.192 255.215 205.192Z" fill="#F6840B"/>
<path d="M144.215 132.192C146.673 135.88 146.527 137.836 146.215 142.192C145.555 143.182 144.895 144.172 144.215 145.192C143.215 144.192 143.215 144.192 143.083 141.724C143.085 140.723 143.088 139.723 143.09 138.692C143.088 137.692 143.085 136.692 143.083 135.661C143.215 133.192 143.215 133.192 144.215 132.192Z" fill="#05152C"/>
<path d="M248.215 107.192C248.545 107.192 248.875 107.192 249.215 107.192C249.411 113.247 249.411 113.247 249.215 115.192C247.322 117.086 245.37 118.612 243.215 120.192C243.67 118.774 244.129 117.358 244.59 115.942C244.973 114.759 244.973 114.759 245.364 113.552C246.167 111.326 247.112 109.283 248.215 107.192Z" fill="#061E36"/>
<path d="M413.215 73.1924C413.215 76.9958 412.077 77.9694 409.715 80.8799C408.741 82.0922 408.741 82.0922 407.747 83.3291C407.241 83.944 406.736 84.5589 406.215 85.1924C405.215 83.1924 405.215 83.1924 405.778 80.8799C407.691 77.3036 409.998 75.6405 413.215 73.1924Z" fill="#F8890F"/>
<path d="M190.215 71.1924C194.835 71.8524 199.455 72.5124 204.215 73.1924C204.215 74.1824 204.215 75.1724 204.215 76.1924C202.444 76.1322 200.673 76.0434 198.903 75.9424C197.917 75.896 196.931 75.8496 195.915 75.8018C193.215 75.1924 193.215 75.1924 190.215 71.1924Z" fill="#011131"/>
<path d="M427.215 43.1921C428.205 43.8521 429.195 44.5121 430.215 45.1921C425.134 46.0389 420.367 46.2825 415.215 46.1921C418.991 42.4165 422.152 42.7903 427.215 43.1921Z" fill="#F9B00E"/>
<path d="M10.2153 240.192C10.8753 240.192 11.5353 240.192 12.2153 240.192C11.5553 244.152 10.8953 248.112 10.2153 252.192C9.22533 252.522 8.23533 252.852 7.21533 253.192C7.76389 248.621 8.63278 244.518 10.2153 240.192Z" fill="#07274E"/>
<path d="M169.215 213.192C170.205 213.522 171.195 213.852 172.215 214.192C163.953 220.712 163.953 220.712 159.215 222.192C160.535 219.882 161.855 217.572 163.215 215.192C163.545 215.852 163.875 216.512 164.215 217.192C164.978 216.512 165.742 215.831 166.528 215.13C167.415 214.491 168.302 213.851 169.215 213.192Z" fill="#D57415"/>
<path d="M435.215 64.1924C436.205 64.1924 437.195 64.1924 438.215 64.1924C437.225 67.1624 436.235 70.1324 435.215 73.1924C434.225 72.8624 433.235 72.5324 432.215 72.1924C432.763 68.8178 433.27 67.11 435.215 64.1924Z" fill="#F68D0E"/>
<path d="M129.215 180.192C129.875 181.182 130.535 182.172 131.215 183.192C129.565 186.162 127.915 189.132 126.215 192.192C125.555 190.872 124.895 189.552 124.215 188.192C125.114 186.052 125.114 186.052 126.59 183.942C127.072 183.236 127.555 182.53 128.051 181.802C128.435 181.271 128.82 180.74 129.215 180.192Z" fill="#01173B"/>
<path d="M297.215 150.192C293.509 153.298 291.193 155.192 286.215 155.192C285.225 154.862 284.235 154.532 283.215 154.192C284.98 153.326 286.753 152.475 288.528 151.63C289.514 151.154 290.5 150.679 291.516 150.188C294.215 149.192 294.215 149.192 297.215 150.192Z" fill="#F9860D"/>
<path d="M424.215 91.1924C422.649 95.5 420.532 99.2541 418.215 103.192C417.555 102.532 416.895 101.872 416.215 101.192C420.178 91.1924 420.178 91.1924 424.215 91.1924Z" fill="#FA9512"/>
<path d="M182.215 191.192C182.875 192.182 183.535 193.172 184.215 194.192C181.245 196.502 178.275 198.812 175.215 201.192C175.215 197.237 176.621 196.084 179.215 193.192C180.205 192.532 181.195 191.872 182.215 191.192Z" fill="#ED9128"/>
<path d="M87.2153 152.192C87.2153 152.852 87.2153 153.512 87.2153 154.192C86.6378 154.44 86.0603 154.687 85.4653 154.942C83.0827 156.124 83.0827 156.124 81.1528 158.317C79.2153 160.192 79.2153 160.192 76.2153 160.192C77.379 156.701 78.1051 156.34 81.1528 154.505C81.8631 154.068 82.5734 153.631 83.3052 153.181C85.2153 152.192 85.2153 152.192 87.2153 152.192Z" fill="#021D4B"/>
<path d="M172.215 399.192C173.798 399.138 175.382 399.099 176.965 399.067C177.847 399.044 178.729 399.021 179.637 398.997C182.215 399.192 182.215 399.192 186.215 401.192C180.275 401.687 180.275 401.687 174.215 402.192C173.555 401.202 172.895 400.212 172.215 399.192Z" fill="#032446"/>
<path d="M152.215 112.192C154.819 114.904 155.21 116.084 155.403 119.942C155.341 121.015 155.279 122.087 155.215 123.192C154.225 122.862 153.235 122.532 152.215 122.192C151.09 114.442 151.09 114.442 152.215 112.192Z" fill="#031F3C"/>
<path d="M260.215 224.192C260.71 224.832 261.205 225.471 261.715 226.13C265.203 229.008 267.75 228.895 272.215 229.192C271.885 229.852 271.555 230.512 271.215 231.192C268.245 230.862 265.275 230.532 262.215 230.192C261.555 228.212 260.895 226.232 260.215 224.192Z" fill="#011333"/>
<path d="M309.215 186.192C309.215 186.852 309.215 187.512 309.215 188.192C304.76 189.677 304.76 189.677 300.215 191.192C300.215 190.532 300.215 189.872 300.215 189.192C300.875 189.192 301.535 189.192 302.215 189.192C302.545 188.202 302.875 187.212 303.215 186.192C306.215 185.192 306.215 185.192 309.215 186.192Z" fill="#F9970D"/>
<path d="M400.215 89.1924C400.215 92.1924 400.215 92.1924 398.684 93.7979C398.034 94.3199 397.385 94.842 396.715 95.3799C396.066 95.9097 395.416 96.4395 394.747 96.9854C394.241 97.3837 393.736 97.782 393.215 98.1924C392.885 97.2024 392.555 96.2124 392.215 95.1924C394.83 93.072 397.412 91.0615 400.215 89.1924Z" fill="#F7850E"/>
<path d="M391.215 74.1924C392.535 74.1924 393.855 74.1924 395.215 74.1924C393.465 79.0674 393.465 79.0674 391.215 80.1924C390.885 79.5324 390.555 78.8724 390.215 78.1924C388.565 78.5224 386.915 78.8524 385.215 79.1924C386.02 78.553 386.824 77.9136 387.653 77.2549C389.49 75.7863 389.49 75.7863 391.215 74.1924Z" fill="#F59807"/>
<path d="M132.215 311.192C133.215 314.192 133.215 314.192 132.278 316.38C131.752 317.277 131.752 317.277 131.215 318.192C130.555 318.192 129.895 318.192 129.215 318.192C128.885 318.852 128.555 319.512 128.215 320.192C128.215 317.882 128.215 315.572 128.215 313.192C129.535 312.532 130.855 311.872 132.215 311.192Z" fill="#DB700E"/>
<path d="M137.215 280.192C137.903 281.817 137.903 281.817 138.215 284.192C136.778 287.442 136.778 287.442 135.215 290.192C134.225 289.862 133.235 289.532 132.215 289.192C132.875 286.882 133.535 284.572 134.215 282.192C134.875 282.192 135.535 282.192 136.215 282.192C136.545 281.532 136.875 280.872 137.215 280.192Z" fill="#F69712"/>
<path d="M246.215 173.192C242.585 174.512 238.955 175.832 235.215 177.192C235.215 175.872 235.215 174.552 235.215 173.192C242.84 170.942 242.84 170.942 246.215 173.192Z" fill="#F99A17"/>
<path d="M390.215 77.1924C390.965 78.8799 390.965 78.8799 391.215 81.1924C389.278 83.9424 389.278 83.9424 387.215 86.1924C386.225 85.8624 385.235 85.5324 384.215 85.1924C387.965 79.4424 387.965 79.4424 390.215 77.1924Z" fill="#F37C06"/>
<path d="M235.215 38.1924C235.215 41.4924 235.215 44.7924 235.215 48.1924C234.885 47.5324 234.555 46.8724 234.215 46.1924C233.555 46.1924 232.895 46.1924 232.215 46.1924C232.215 43.8824 232.215 41.5724 232.215 39.1924C234.215 38.1924 234.215 38.1924 235.215 38.1924Z" fill="#001533"/>
<path d="M302.215 34.1924C304.74 36.7172 304.773 38.3306 305.34 41.8174C305.508 42.8203 305.675 43.8232 305.848 44.8564C305.969 45.6273 306.09 46.3982 306.215 47.1924C303.417 44.6645 301.758 42.9883 301.215 39.1924C301.875 39.1924 302.535 39.1924 303.215 39.1924C302.885 37.5424 302.555 35.8924 302.215 34.1924Z" fill="#F98307"/>
<path d="M306.215 17.1924C307.339 20.4967 307.111 22.2431 305.778 25.4424C305.49 26.1488 305.203 26.8552 304.907 27.583C304.679 28.1141 304.45 28.6452 304.215 29.1924C302.411 26.4331 302.203 25.3027 302.59 21.9424C302.797 21.0349 303.003 20.1274 303.215 19.1924C303.875 19.1924 304.535 19.1924 305.215 19.1924C305.545 18.5324 305.875 17.8724 306.215 17.1924Z" fill="#F88107"/>
<path d="M77.2153 284.192C77.5453 284.192 77.8753 284.192 78.2153 284.192C78.2759 285.096 78.3365 286 78.3989 286.931C78.4827 288.11 78.5665 289.29 78.6528 290.505C78.734 291.677 78.8153 292.848 78.8989 294.056C79.1021 297.218 79.1021 297.218 80.2153 300.192C79.5553 300.192 78.8953 300.192 78.2153 300.192C77.8853 300.852 77.5553 301.512 77.2153 302.192C77.2153 296.252 77.2153 290.312 77.2153 284.192Z" fill="#011431"/>
<path d="M118.215 240.192C118.545 240.192 118.875 240.192 119.215 240.192C118.885 244.152 118.555 248.112 118.215 252.192C117.225 251.862 116.235 251.532 115.215 251.192C115.545 248.882 115.875 246.572 116.215 244.192C116.875 244.192 117.535 244.192 118.215 244.192C118.215 242.872 118.215 241.552 118.215 240.192Z" fill="#021C3F"/>
<path d="M167.215 188.192C167.875 189.182 168.535 190.172 169.215 191.192C166.527 193.445 164.569 195.075 161.215 196.192C162.658 192.826 164.548 190.682 167.215 188.192Z" fill="#021534"/>
<path d="M270.215 161.193C268.882 162.526 267.549 163.859 266.215 165.193C263.09 164.818 263.09 164.818 260.215 164.193C263.371 161.037 265.905 159.756 270.215 161.193Z" fill="#F9870E"/>
<path d="M144.215 132.193C143.555 133.513 142.895 134.833 142.215 136.193C140.565 136.193 138.915 136.193 137.215 136.193C137.215 135.203 137.215 134.213 137.215 133.193C139.678 131.961 141.495 132.121 144.215 132.193Z" fill="#062245"/>
<path d="M439.215 14.1924C439.215 17.1924 439.215 17.1924 437.465 19.0166C436.723 19.6315 435.98 20.2464 435.215 20.8799C434.473 21.5025 433.73 22.1251 432.965 22.7666C432.388 23.2371 431.81 23.7076 431.215 24.1924C430.885 22.8724 430.555 21.5524 430.215 20.1924C430.781 19.843 431.347 19.4937 431.93 19.1338C432.664 18.6788 433.397 18.2237 434.153 17.7549C434.884 17.3024 435.615 16.85 436.368 16.3838C438.154 15.3237 438.154 15.3237 439.215 14.1924Z" fill="#F4820C"/>
<path d="M123.215 190.192C123.875 190.192 124.535 190.192 125.215 190.192C124.705 194.581 123.693 197.529 121.215 201.192C120.215 199.192 120.215 199.192 120.774 197.028C121.064 196.216 121.354 195.404 121.653 194.567C121.94 193.75 122.228 192.933 122.524 192.091C122.752 191.464 122.98 190.838 123.215 190.192Z" fill="#052B45"/>
<path d="M200.215 190.192C200.875 190.522 201.535 190.852 202.215 191.192C202.215 191.852 202.215 192.512 202.215 193.192C198.95 195.076 195.934 195.685 192.215 196.192C194.675 193.558 196.793 191.447 200.215 190.192Z" fill="#F5850C"/>
<path d="M365.215 88.1924C365.545 88.8524 365.875 89.5124 366.215 90.1924C365.885 90.8524 365.555 91.5124 365.215 92.1924C363.757 92.2464 362.299 92.2852 360.84 92.3174C360.028 92.3406 359.216 92.3638 358.379 92.3877C356.215 92.1924 356.215 92.1924 354.215 90.1924C359.66 89.2024 359.66 89.2024 365.215 88.1924Z" fill="#F79B0C"/>
<path d="M376.215 84.1924C376.545 85.1824 376.875 86.1724 377.215 87.1924C375.251 88.2601 373.247 89.2579 371.215 90.1924C370.555 89.8624 369.895 89.5324 369.215 89.1924C371.435 85.8634 372.562 85.4422 376.215 84.1924Z" fill="#F48516"/>
<path d="M130.215 59.1924C131.675 59.2795 133.133 59.3877 134.59 59.5049C135.808 59.5919 135.808 59.5919 137.051 59.6807C139.215 60.1924 139.215 60.1924 141.215 63.1924C133.787 63.4781 133.787 63.4781 130.215 61.1924C130.215 60.5324 130.215 59.8724 130.215 59.1924Z" fill="#042348"/>
<path d="M272.215 36.1924C275.68 38.1724 275.68 38.1724 279.215 40.1924C279.215 41.1824 279.215 42.1724 279.215 43.1924C276.84 42.5049 276.84 42.5049 274.215 41.1924C272.903 38.5674 272.903 38.5674 272.215 36.1924Z" fill="#F2890F"/>
<path d="M419.215 31.1924C420.205 31.5224 421.195 31.8524 422.215 32.1924C419.903 34.6924 419.903 34.6924 417.215 37.1924C416.225 37.1924 415.235 37.1924 414.215 37.1924C415.585 34.0312 416.204 33.1997 419.215 31.1924Z" fill="#F78807"/>
<path d="M123.215 259.192C124.281 262.389 124.29 264.85 124.215 268.192C123.555 268.192 122.895 268.192 122.215 268.192C121.555 269.512 120.895 270.832 120.215 272.192C120.764 267.621 121.633 263.518 123.215 259.192Z" fill="#001633"/>
<path d="M106.215 219.192C106.215 223.582 104.087 224.961 101.215 228.192C100.885 227.202 100.555 226.212 100.215 225.192C103.379 220.611 103.379 220.611 106.215 219.192Z" fill="#062148"/>
<path d="M416.215 99.1924C417.215 102.192 417.215 102.192 416.403 104.255C415.215 106.192 415.215 106.192 413.215 108.192C412.555 107.532 411.895 106.872 411.215 106.192C412.865 103.882 414.515 101.572 416.215 99.1924Z" fill="#F98209"/>
<path d="M231.215 35.1924C232.7 36.1824 232.7 36.1824 234.215 37.1924C234.215 37.8524 234.215 38.5124 234.215 39.1924C233.555 39.1924 232.895 39.1924 232.215 39.1924C232.215 43.1524 232.215 47.1124 232.215 51.1924C231.885 51.1924 231.555 51.1924 231.215 51.1924C231.215 45.9124 231.215 40.6324 231.215 35.1924Z" fill="#05223E"/>
<path d="M45.2153 410.192C49.1481 411.766 50.9059 412.666 53.0903 416.38C53.4616 417.308 53.8328 418.236 54.2153 419.192C50.396 417.636 47.9549 415.236 45.2153 412.192C45.2153 411.532 45.2153 410.872 45.2153 410.192Z" fill="#06294D"/>
<path d="M152.215 273.192C153.205 273.522 154.195 273.852 155.215 274.192C153.403 277.192 153.403 277.192 151.215 280.192C150.225 280.192 149.235 280.192 148.215 280.192C149.289 277.277 149.993 275.414 152.215 273.192Z" fill="#F28A0F"/>
<path d="M452.215 60.1924C452.813 60.5018 453.412 60.8111 454.028 61.1299C456.305 62.2945 456.305 62.2945 459.215 63.1924C459.215 63.8524 459.215 64.5124 459.215 65.1924C456.84 65.3174 456.84 65.3174 454.215 65.1924C453.555 64.5324 452.895 63.8724 452.215 63.1924C452.215 62.2024 452.215 61.2124 452.215 60.1924Z" fill="#F7950B"/>
<path d="M132.215 290.192C132.875 290.522 133.535 290.852 134.215 291.192C133.555 293.832 132.895 296.472 132.215 299.192C131.555 299.192 130.895 299.192 130.215 299.192C131.09 292.442 131.09 292.442 132.215 290.192Z" fill="#E88820"/>
<path d="M238.215 144.192C238.875 145.182 239.535 146.172 240.215 147.192C237.245 149.667 237.245 149.667 234.215 152.192C234.215 150.872 234.215 149.552 234.215 148.192C234.875 148.192 235.535 148.192 236.215 148.192C236.875 146.872 237.535 145.552 238.215 144.192Z" fill="#F39210"/>
<path d="M121.215 69.1924C122.535 69.1924 123.855 69.1924 125.215 69.1924C125.215 69.8524 125.215 70.5124 125.215 71.1924C126.205 71.5224 127.195 71.8524 128.215 72.1924C128.215 73.1824 128.215 74.1724 128.215 75.1924C124.848 73.7991 123.229 72.2135 121.215 69.1924Z" fill="#052345"/>
<path d="M312.215 57.1924C317.965 59.0674 317.965 59.0674 320.215 60.1924C320.215 61.1824 320.215 62.1724 320.215 63.1924C317.243 62.0679 314.881 60.9694 312.215 59.1924C312.215 58.5324 312.215 57.8724 312.215 57.1924Z" fill="#F89A10"/>
<path d="M138.215 460.192C141.185 460.522 144.155 460.852 147.215 461.192C147.215 461.522 147.215 461.852 147.215 462.192C142.76 462.687 142.76 462.687 138.215 463.192C138.215 462.202 138.215 461.212 138.215 460.192Z" fill="#001235"/>
<path d="M256.215 450.192C257.865 450.192 259.515 450.192 261.215 450.192C259.148 452.99 258.071 453.219 254.528 453.88C253.435 453.983 252.342 454.086 251.215 454.192C254.215 452.192 254.215 452.192 256.215 452.192C256.215 451.532 256.215 450.872 256.215 450.192Z" fill="#032443"/>
<path d="M156.215 223.192C157.205 223.192 158.195 223.192 159.215 223.192C159.215 224.182 159.215 225.172 159.215 226.192C158.555 226.852 157.895 227.512 157.215 228.192C156.225 228.192 155.235 228.192 154.215 228.192C155.09 224.317 155.09 224.317 156.215 223.192Z" fill="#704E29"/>
<path d="M269.215 175.192C266.65 177.758 264.738 177.733 261.215 178.192C261.215 177.202 261.215 176.212 261.215 175.192C264.505 174.096 265.928 174.393 269.215 175.192Z" fill="#F68711"/>
<path d="M372.215 114.192C373.205 114.522 374.195 114.852 375.215 115.192C373.565 117.172 371.915 119.152 370.215 121.192C369.555 120.862 368.895 120.532 368.215 120.192C369.535 118.212 370.855 116.232 372.215 114.192Z" fill="#F78F0F"/>
<path d="M361.215 43.1924C361.875 44.1824 362.535 45.1724 363.215 46.1924C362.403 48.1299 362.403 48.1299 361.215 50.1924C360.225 50.5224 359.235 50.8524 358.215 51.1924C360.09 45.4424 360.09 45.4424 361.215 43.1924Z" fill="#F6830C"/>
<path d="M351.215 5.19229C351.215 5.52229 351.215 5.85229 351.215 6.19229C343.465 5.44229 343.465 5.44229 341.215 3.19229C345.276 1.47436 347.573 3.12257 351.215 5.19229Z" fill="#F9890B"/>
<path d="M173.215 204.192C173.84 206.005 173.84 206.005 174.215 208.192C173.225 209.677 173.225 209.677 172.215 211.192C171.225 211.192 170.235 211.192 169.215 211.192C170.419 208.699 171.67 206.511 173.215 204.192Z" fill="#FC9B31"/>
<path d="M334.215 172.192C334.875 173.182 335.535 174.172 336.215 175.192C334.235 176.182 332.255 177.172 330.215 178.192C329.885 177.532 329.555 176.872 329.215 176.192C329.875 176.192 330.535 176.192 331.215 176.192C331.215 175.202 331.215 174.212 331.215 173.192C332.205 172.862 333.195 172.532 334.215 172.192Z" fill="#F89912"/>
<path d="M345.215 166.192C345.875 166.522 346.535 166.852 347.215 167.192C344.245 169.667 344.245 169.667 341.215 172.192C340.225 171.532 339.235 170.872 338.215 170.192C343.489 166.97 343.489 166.97 345.215 166.192Z" fill="#F98608"/>
<path d="M222.965 158.942C223.708 159.025 224.45 159.107 225.215 159.192C224.225 160.677 224.225 160.677 223.215 162.192C219.59 162.88 219.59 162.88 216.215 163.192C219.538 159.254 219.538 159.254 222.965 158.942Z" fill="#F28B12"/>
<path d="M302.215 148.192C302.215 148.852 302.215 149.512 302.215 150.192C299.861 151.622 298.735 152.279 295.965 151.817C295.388 151.611 294.81 151.405 294.215 151.192C298.84 148.192 298.84 148.192 302.215 148.192Z" fill="#F99D12"/>
<path d="M166.215 71.1924C170.175 73.1724 170.175 73.1724 174.215 75.1924C173.225 75.6874 173.225 75.6874 172.215 76.1924C169.856 75.2566 167.519 74.2589 165.215 73.1924C165.545 72.5324 165.875 71.8724 166.215 71.1924Z" fill="#062A46"/>
<path d="M145.215 132.192C150.108 146.871 140.312 164.972 133.942 177.86C131.011 183.661 127.905 189.357 124.683 195C122.324 199.135 120.229 203.281 118.278 207.63C115.517 213.316 111.584 216.98 107.028 221.282C96.48 231.711 89.6595 247.325 85.2152 261.192C84.853 262.265 84.4908 263.337 84.1176 264.442C80.7048 275.598 80.2756 286.591 80.2152 298.192C80.2023 299.367 80.1894 300.541 80.1762 301.751C80.7274 318.056 87.1636 336.489 95.9027 350.192C96.3319 350.875 96.7611 351.558 97.2033 352.262C100.529 357.423 104.199 361.882 108.5 366.274C110.215 368.192 110.215 368.192 111.215 371.192C112.534 371.888 113.871 372.548 115.215 373.192C117.149 374.713 119.063 376.258 120.965 377.817C145.109 396.872 175.309 400.669 205.153 397.505C217.101 396 237.307 391.101 246.215 382.192C246.376 379.092 246.475 376.011 246.532 372.907C246.563 371.511 246.563 371.511 246.595 370.087C246.66 367.101 246.719 364.116 246.778 361.13C246.821 359.111 246.865 357.092 246.909 355.073C247.016 350.113 247.117 345.153 247.215 340.192C245.959 340.2 245.959 340.2 244.678 340.208C224.163 340.318 203.717 339.966 183.215 339.192C183.192 331.647 183.174 324.102 183.163 316.557C183.158 313.054 183.151 309.551 183.14 306.048C183.127 302.025 183.122 298.001 183.118 293.978C183.11 292.082 183.11 292.082 183.102 290.149C183.102 288.988 183.102 287.826 183.102 286.63C183.099 285.602 183.097 284.574 183.095 283.515C183.215 281.192 183.215 281.192 184.215 280.192C185.947 280.094 187.682 280.066 189.416 280.065C190.543 280.063 191.671 280.06 192.832 280.057C194.08 280.059 195.328 280.061 196.614 280.063C197.919 280.061 199.225 280.06 200.57 280.058C204.161 280.053 207.751 280.055 211.342 280.058C215.092 280.061 218.842 280.058 222.592 280.057C228.89 280.055 235.188 280.057 241.487 280.062C248.779 280.067 256.07 280.066 263.362 280.06C269.612 280.056 275.862 280.055 282.111 280.058C285.849 280.059 289.586 280.059 293.324 280.056C297.488 280.053 301.652 280.057 305.817 280.063C307.065 280.061 308.312 280.059 309.598 280.057C311.289 280.061 311.289 280.061 313.015 280.065C314 280.066 314.986 280.066 316.002 280.067C318.215 280.192 318.215 280.192 319.215 281.192C319.325 282.965 319.364 284.742 319.376 286.518C319.386 287.673 319.396 288.829 319.406 290.019C319.412 291.298 319.418 292.577 319.424 293.895C319.433 295.246 319.443 296.598 319.454 297.949C319.485 302.4 319.505 306.851 319.524 311.302C319.527 312.058 319.53 312.815 319.534 313.595C319.565 320.728 319.591 327.861 319.608 334.994C319.63 344.126 319.672 353.256 319.742 362.388C319.789 368.804 319.813 375.22 319.82 381.636C319.825 385.47 319.84 389.303 319.88 393.137C319.917 396.746 319.925 400.353 319.912 403.962C319.912 405.916 319.942 407.87 319.973 409.824C319.903 418.205 319.903 418.206 317.924 421.044C316.334 422.392 316.334 422.392 313.215 424.192C312.355 424.861 311.496 425.53 310.61 426.22C304.395 430.818 298.1 434.689 291.215 438.192C290.605 438.507 289.994 438.822 289.366 439.146C280.803 443.556 272.21 447.72 263.215 451.192C262.165 451.601 261.114 452.01 260.032 452.431C208.904 471.522 148.426 473.027 98.289 450.165C66.5141 435.261 39.6907 411.801 22.2152 381.192C21.8789 380.614 21.5427 380.036 21.1962 379.44C12.7916 364.901 7.84049 349.531 4.21522 333.192C4.06956 332.545 3.92389 331.898 3.77382 331.23C-4.14089 295.597 0.575453 259.036 16.2152 226.192C16.5581 225.443 16.901 224.695 17.2543 223.923C27.6114 202.117 44.1123 181.844 63.2152 167.192C64.1588 166.433 64.1588 166.433 65.1215 165.657C84.7622 150.195 107.251 140.676 131.215 134.192C132.426 133.85 132.426 133.85 133.661 133.501C137.599 132.43 141.136 131.988 145.215 132.192Z" fill="#0F2F4F"/>
<path d="M459.215 1.19247C460.551 3.86348 460.342 5.90479 460.345 8.8956C460.348 10.0902 460.351 11.2849 460.354 12.5157C460.351 14.4595 460.351 14.4595 460.348 16.4425C460.349 17.78 460.35 19.1176 460.351 20.4552C460.352 23.2595 460.35 26.0639 460.346 28.8683C460.34 32.4664 460.343 36.0646 460.349 39.6628C460.353 42.4251 460.352 45.1874 460.349 47.9497C460.348 49.9229 460.351 51.896 460.354 53.8692C460.351 55.0639 460.348 56.2585 460.345 57.4893C460.343 59.0725 460.343 59.0725 460.342 60.6876C460.215 63.1925 460.215 63.1925 459.215 65.1925C457.047 65.5362 457.047 65.5362 454.215 65.1925C452.212 63.3915 450.602 61.7413 448.903 59.6925C448.221 58.9055 448.221 58.9055 447.526 58.1026C446.409 56.8101 445.311 55.5027 444.215 54.1925C441.615 57.3069 440.347 60.2464 439.028 64.0675C436.639 70.5023 433.542 76.1668 430.059 82.044C428.641 84.4647 427.351 86.8492 426.153 89.38C421.195 99.5099 414.252 108.441 407.215 117.192C406.565 118.001 406.565 118.001 405.902 118.826C388.816 139.913 368.508 156.37 345.215 170.192C344.256 170.792 343.297 171.391 342.309 172.009C323.723 183.249 302.885 191.323 282.43 198.415C278.467 199.806 274.561 201.338 270.649 202.864C267.938 203.913 265.223 204.941 262.5 205.958C239.178 214.692 215.851 224.02 195.215 238.192C193.591 239.297 193.591 239.297 191.934 240.423C174.431 252.508 159.849 266.248 148.215 284.192C147.121 285.834 147.121 285.834 146.004 287.509C140.327 296.302 136.351 305.58 132.577 315.332C132.182 316.335 131.786 317.339 131.379 318.372C131.033 319.277 130.687 320.182 130.331 321.114C129.215 323.192 129.215 323.192 126.215 324.192C125.17 290.79 142.772 258.534 164.215 234.192C164.797 233.477 165.378 232.762 165.977 232.025C190.656 201.875 230.34 187.316 265.403 173.63C290.031 164.012 314.451 153.735 337.215 140.192C338.161 139.633 339.107 139.074 340.082 138.497C354.146 129.859 368.534 119.303 379.977 107.353C381.215 106.192 381.215 106.192 383.215 106.192C383.545 105.202 383.875 104.212 384.215 103.192C386.153 101.005 386.153 101.005 388.215 99.1925C388.875 99.1925 389.535 99.1925 390.215 99.1925C390.215 98.5325 390.215 97.8725 390.215 97.1925C390.875 97.1925 391.535 97.1925 392.215 97.1925C392.557 96.3668 392.557 96.3668 392.907 95.5245C394.595 92.5158 396.758 90.3642 399.153 87.88C408.038 78.4118 415.267 67.8012 422.34 56.9425C422.814 56.2152 423.288 55.4879 423.776 54.7386C424.43 53.718 424.43 53.718 425.098 52.6768C425.484 52.0758 425.869 51.4748 426.266 50.8556C427.375 49.0374 427.375 49.0374 428.215 46.1925C427.095 46.2157 425.975 46.2389 424.821 46.2628C423.348 46.2815 421.875 46.2997 420.403 46.3175C419.665 46.3342 418.927 46.351 418.166 46.3683C414.303 46.4032 412.506 46.3864 409.215 44.1925C409.465 41.8175 409.465 41.8175 410.215 39.1925C412.153 38.13 412.153 38.13 414.215 37.1925C414.898 35.8673 415.566 34.5344 416.215 33.1925C417.7 32.6975 417.7 32.6975 419.215 32.1925C419.545 31.2025 419.875 30.2125 420.215 29.1925C421.641 27.755 421.641 27.755 423.528 26.1925C427.123 23.1442 430.626 20.0127 434.09 16.8175C435.119 15.8733 436.147 14.9293 437.176 13.9854C439.143 12.1793 441.106 10.3688 443.067 8.55575C443.941 7.75525 444.815 6.95474 445.715 6.12997C446.489 5.41712 447.262 4.70427 448.059 3.96982C451.946 0.7654 454.277 -0.409053 459.215 1.19247Z" fill="#F88F1F"/>
</svg>
